<svg width="96" height="96" viewBox="0 0 96 96" fill="none" xmlns="http://www.w3.org/2000/svg">
  <rect width="96" height="96" rx="24" fill="#FF3B4D"/>
  <rect x="20" y="28" width="56" height="40" rx="14" fill="#F7F7F7"/>
  <rect x="28" y="38" width="12" height="12" rx="6" fill="#FF8A1F"/>
  <rect x="56" y="38" width="12" height="12" rx="6" fill="#FF8A1F"/>
  <path d="M38 56C40.4 59.2 44 61 48 61C52 61 55.6 59.2 58 56" stroke="#8A8A8A" stroke-width="5" stroke-linecap="round"/>
  <path d="M48 16V28" stroke="#AFAFAF" stroke-width="6" stroke-linecap="round"/>
  <circle cx="48" cy="12" r="7" fill="#FF3B4D"/>
  <path d="M14 48C14 43.6 17.6 40 22 40H20C24.4 40 28 43.6 28 48V56H14V48Z" fill="#2D7FF9"/>
  <path d="M82 48C82 43.6 78.4 40 74 40H76C71.6 40 68 43.6 68 48V56H82V48Z" fill="#2D7FF9"/>
  <path d="M17 39C20 24 33 14 48 14C63 14 76 24 79 39" stroke="#B9B9B9" stroke-width="5" stroke-linecap="round"/>
</svg>